<svg width="16" height="12" viewBox="0 0 16 12" fill="none" xmlns="http://www.w3.org/2000/svg">
<path d="M15.5413 1.63956L14.9183 1.0166L9.14781 6.7871C8.4265 7.50841 7.21339 7.50841 6.49208 6.7871L0.721584 1.04939L0.0986328 1.67234L4.39372 5.96742L0.0986328 10.2625L0.721584 10.8855L5.01667 6.59037L5.86913 7.44283C6.39372 7.96742 7.08224 8.26251 7.80355 8.26251C8.52486 8.26251 9.21339 7.96742 9.73798 7.44283L10.5904 6.59037L14.8855 10.8855L15.5085 10.2625L11.2134 5.96742L15.5413 1.63956Z" fill="#BDBDBD"/>
<path d="M14.3279 12H1.37705C0.622953 12 0 11.3771 0 10.623V1.37705C0 0.62295 0.622953 0 1.37705 0H14.3279C15.082 0 15.7049 0.62295 15.7049 1.37705V10.623C15.7049 11.3771 15.082 12 14.3279 12ZM1.34426 0.885245C1.08197 0.885245 0.885248 1.08196 0.885248 1.34426V10.5902C0.885248 10.8525 1.08197 11.0492 1.34426 11.0492H14.2951C14.5574 11.0492 14.7541 10.8525 14.7541 10.5902V1.34426C14.7541 1.08196 14.5574 0.885245 14.2951 0.885245H1.34426Z" fill="#BDBDBD"/>
</svg>
