<svg width="16" height="16" viewBox="0 0 16 16" fill="none" xmlns="http://www.w3.org/2000/svg">
<path d="M14.6408 0.718881C13.6823 -0.239627 12.1283 -0.239627 11.1698 0.718881L1.43945 10.4493C1.37276 10.5159 1.32461 10.5986 1.29947 10.6894L0.0199024 15.3089C-0.0327208 15.4983 0.0207545 15.7011 0.159663 15.8403C0.298784 15.9792 0.501606 16.0326 0.691007 15.9802L5.31055 14.7004C5.40131 14.6753 5.48397 14.6271 5.55066 14.5605L15.2808 4.82987C16.2378 3.87073 16.2378 2.31803 15.2808 1.35888L14.6408 0.718881ZM2.62784 10.8038L10.5914 2.84L13.1597 5.4083L5.19593 13.3721L2.62784 10.8038ZM2.11481 11.8332L4.16669 13.8853L1.32845 14.6717L2.11481 11.8332ZM14.5096 4.05864L13.9312 4.63707L11.3626 2.06855L11.9413 1.49012C12.4737 0.957709 13.337 0.957709 13.8694 1.49012L14.5096 2.13012C15.0411 2.66317 15.0411 3.5258 14.5096 4.05864Z" fill="#BDBDBD"/>
</svg>
