<svg width="26" height="26" viewBox="0 0 26 26" fill="none" xmlns="http://www.w3.org/2000/svg">
<rect width="26" height="26" rx="13" fill="#E0E0E0"/>
<path d="M12.2988 17H6.70898V16.2207L9.66211 12.9395C10.0996 12.4434 10.4004 12.041 10.5645 11.7324C10.7324 11.4199 10.8164 11.0977 10.8164 10.7656C10.8164 10.3203 10.6816 9.95508 10.4121 9.66992C10.1426 9.38477 9.7832 9.24219 9.33398 9.24219C8.79492 9.24219 8.375 9.39648 8.07422 9.70508C7.77734 10.0098 7.62891 10.4355 7.62891 10.9824H6.54492C6.54492 10.1973 6.79688 9.5625 7.30078 9.07812C7.80859 8.59375 8.48633 8.35156 9.33398 8.35156C10.127 8.35156 10.7539 8.56055 11.2148 8.97852C11.6758 9.39258 11.9062 9.94531 11.9062 10.6367C11.9062 11.4766 11.3711 12.4766 10.3008 13.6367L8.01562 16.1152H12.2988V17ZM15.0234 12.207H15.8379C16.3496 12.1992 16.752 12.0645 17.0449 11.8027C17.3379 11.541 17.4844 11.1875 17.4844 10.7422C17.4844 9.74219 16.9863 9.24219 15.9902 9.24219C15.5215 9.24219 15.1465 9.37695 14.8652 9.64648C14.5879 9.91211 14.4492 10.2656 14.4492 10.707H13.3652C13.3652 10.0312 13.6113 9.4707 14.1035 9.02539C14.5996 8.57617 15.2285 8.35156 15.9902 8.35156C16.7949 8.35156 17.4258 8.56445 17.8828 8.99023C18.3398 9.41602 18.5684 10.0078 18.5684 10.7656C18.5684 11.1367 18.4473 11.4961 18.2051 11.8438C17.9668 12.1914 17.6406 12.4512 17.2266 12.623C17.6953 12.7715 18.0566 13.0176 18.3105 13.3613C18.5684 13.7051 18.6973 14.125 18.6973 14.6211C18.6973 15.3867 18.4473 15.9941 17.9473 16.4434C17.4473 16.8926 16.7969 17.1172 15.9961 17.1172C15.1953 17.1172 14.543 16.9004 14.0391 16.4668C13.5391 16.0332 13.2891 15.4609 13.2891 14.75H14.3789C14.3789 15.1992 14.5254 15.5586 14.8184 15.8281C15.1113 16.0977 15.5039 16.2324 15.9961 16.2324C16.5195 16.2324 16.9199 16.0957 17.1973 15.8223C17.4746 15.5488 17.6133 15.1562 17.6133 14.6445C17.6133 14.1484 17.4609 13.7676 17.1562 13.502C16.8516 13.2363 16.4121 13.0996 15.8379 13.0918H15.0234V12.207Z" fill="#4F4F4F"/>
</svg>
