<svg width="21" height="21" viewBox="0 0 21 21" fill="none" xmlns="http://www.w3.org/2000/svg">
<path d="M20.7204 19.3702L15.3015 13.9516C16.477 12.4823 17.1817 10.6193 17.1817 8.59086C17.1817 3.84632 13.3354 0 8.59086 0C3.84632 0 0 3.84632 0 8.59086C0 13.3354 3.84632 17.1817 8.59086 17.1817C10.6193 17.1817 12.482 16.477 13.9516 15.3015L19.3705 20.7204C19.7432 21.0932 20.3477 21.0932 20.7204 20.7204C21.0932 20.3477 21.0932 19.743 20.7204 19.3702ZM8.59086 15.2726C4.90061 15.2726 1.90908 12.2811 1.90908 8.59086C1.90908 4.90061 4.90061 1.90908 8.59086 1.90908C12.2811 1.90908 15.2726 4.90061 15.2726 8.59086C15.2726 12.2811 12.2811 15.2726 8.59086 15.2726Z" fill="#458393"/>
</svg>
