<svg width="29" height="26" viewBox="0 0 29 26" fill="none" xmlns="http://www.w3.org/2000/svg">
<path d="M4 8.66667V4C4 2.34314 5.34315 1 7 1H25C26.6569 1 28 2.34315 28 4V22C28 23.6569 26.6569 25 25 25H7C5.34315 25 4 23.6569 4 22V17.3333" stroke="#85ADB6" stroke-width="1.6" stroke-linecap="round"/>
<path d="M14.2591 17.9769C13.8925 18.3435 13.8925 18.9369 14.2591 19.3025C14.6257 19.6691 15.2191 19.6691 15.5847 19.3025L21.0525 13.8338C21.2475 13.6387 21.331 13.3791 21.3178 13.124C21.331 12.8681 21.2475 12.6094 21.0525 12.4144L15.5847 6.94656C15.2191 6.57999 14.6247 6.57999 14.2591 6.94656C13.8925 7.31313 13.8925 7.90656 14.2591 8.27215L18.1744 12.1874H0.9375C0.42 12.1875 0 12.6075 0 13.125C0 13.6425 0.42 14.0625 0.9375 14.0625H18.1744L14.2591 17.9769Z" fill="#85ADB6"/>
</svg>
