<svg width="26" height="26" viewBox="0 0 26 26" fill="none" xmlns="http://www.w3.org/2000/svg">
<path d="M24.3 13C24.3 19.2408 19.2408 24.3 13 24.3V25.7C20.014 25.7 25.7 20.014 25.7 13H24.3ZM13 24.3C6.75918 24.3 1.7 19.2408 1.7 13H0.3C0.3 20.014 5.98598 25.7 13 25.7V24.3ZM1.7 13C1.7 6.75918 6.75918 1.7 13 1.7V0.3C5.98598 0.3 0.3 5.98598 0.3 13H1.7ZM13 1.7C19.2408 1.7 24.3 6.75918 24.3 13H25.7C25.7 5.98598 20.014 0.3 13 0.3V1.7ZM18.2998 13C18.2998 16.2286 17.644 19.117 16.6164 21.1722C15.5679 23.2694 14.2489 24.3 13 24.3V25.7C15.0648 25.7 16.7457 24.0443 17.8686 21.7983C19.0125 19.5105 19.6998 16.3988 19.6998 13H18.2998ZM13 24.3C11.7511 24.3 10.432 23.2694 9.38333 21.1722C8.35563 19.1169 7.69976 16.2286 7.69976 13H6.29976C6.29976 16.3988 6.98716 19.5105 8.13115 21.7983C9.2542 24.0443 10.9352 25.7 13 25.7V24.3ZM7.69976 13C7.69976 9.77141 8.35563 6.88307 9.38333 4.82778C10.432 2.73062 11.7511 1.7 13 1.7V0.3C10.9352 0.3 9.2542 1.95567 8.13115 4.20166C6.98716 6.48951 6.29976 9.60117 6.29976 13H7.69976ZM13 1.7C14.2489 1.7 15.5679 2.73059 16.6164 4.82775C17.644 6.88304 18.2998 9.77139 18.2998 13H19.6998C19.6998 9.60119 19.0125 6.48954 17.8686 4.20168C16.7457 1.9557 15.0648 0.3 13 0.3V1.7ZM4.04646 21.3139C6.10789 20.045 9.32761 19.1988 12.997 19.1988V17.7988C9.14543 17.7988 5.65215 18.6816 3.31258 20.1217L4.04646 21.3139ZM12.997 19.1988C16.6154 19.1988 19.7975 20.0218 21.8622 21.2614L22.5828 20.0612C20.2456 18.6579 16.7966 17.7988 12.997 17.7988V19.1988ZM21.9472 4.68246C19.8857 5.95092 16.6659 6.79714 12.9965 6.79714V8.19714C16.8481 8.19714 20.3414 7.31435 22.6809 5.87482L21.9472 4.68246ZM12.9965 6.79714C9.37862 6.79714 6.19609 5.97418 4.13136 4.7345L3.41071 5.93478C5.74798 7.33809 9.19745 8.19714 12.9965 8.19714V6.79714ZM1 13.7H25V12.3H1V13.7ZM12.3 1V25H13.7V1H12.3Z" fill="#85ADB6"/>
</svg>
