<svg width="84" height="12" viewBox="0 0 84 12" fill="none" xmlns="http://www.w3.org/2000/svg">
<path d="M7.26562 6.29297C7.16016 7.19531 6.82617 7.89258 6.26367 8.38477C5.70508 8.87305 4.96094 9.11719 4.03125 9.11719C3.02344 9.11719 2.21484 8.75586 1.60547 8.0332C1 7.31055 0.697266 6.34375 0.697266 5.13281V4.3125C0.697266 3.51953 0.837891 2.82227 1.11914 2.2207C1.4043 1.61914 1.80664 1.1582 2.32617 0.837891C2.8457 0.513672 3.44727 0.351562 4.13086 0.351562C5.03711 0.351562 5.76367 0.605469 6.31055 1.11328C6.85742 1.61719 7.17578 2.31641 7.26562 3.21094H6.13477C6.03711 2.53125 5.82422 2.03906 5.49609 1.73438C5.17188 1.42969 4.7168 1.27734 4.13086 1.27734C3.41211 1.27734 2.84766 1.54297 2.4375 2.07422C2.03125 2.60547 1.82812 3.36133 1.82812 4.3418V5.16797C1.82812 6.09375 2.02148 6.83008 2.4082 7.37695C2.79492 7.92383 3.33594 8.19727 4.03125 8.19727C4.65625 8.19727 5.13477 8.05664 5.4668 7.77539C5.80273 7.49023 6.02539 6.99609 6.13477 6.29297H7.26562ZM8.34961 5.77148C8.34961 5.15039 8.4707 4.5918 8.71289 4.0957C8.95898 3.59961 9.29883 3.2168 9.73242 2.94727C10.1699 2.67773 10.668 2.54297 11.2266 2.54297C12.0898 2.54297 12.7871 2.8418 13.3184 3.43945C13.8535 4.03711 14.1211 4.83203 14.1211 5.82422V5.90039C14.1211 6.51758 14.002 7.07227 13.7637 7.56445C13.5293 8.05273 13.1914 8.43359 12.75 8.70703C12.3125 8.98047 11.8086 9.11719 11.2383 9.11719C10.3789 9.11719 9.68164 8.81836 9.14648 8.2207C8.61523 7.62305 8.34961 6.83203 8.34961 5.84766V5.77148ZM9.43945 5.90039C9.43945 6.60352 9.60156 7.16797 9.92578 7.59375C10.2539 8.01953 10.6914 8.23242 11.2383 8.23242C11.7891 8.23242 12.2266 8.01758 12.5508 7.58789C12.875 7.1543 13.0371 6.54883 13.0371 5.77148C13.0371 5.07617 12.8711 4.51367 12.5391 4.08398C12.2109 3.65039 11.7734 3.43359 11.2266 3.43359C10.6914 3.43359 10.2598 3.64648 9.93164 4.07227C9.60352 4.49805 9.43945 5.10742 9.43945 5.90039ZM20.8359 5.90039C20.8359 6.86523 20.6152 7.64258 20.1738 8.23242C19.7324 8.82227 19.1348 9.11719 18.3809 9.11719C17.6113 9.11719 17.0059 8.87305 16.5645 8.38477V11.4375H15.4805V2.66016H16.4707L16.5234 3.36328C16.9648 2.81641 17.5781 2.54297 18.3633 2.54297C19.125 2.54297 19.7266 2.83008 20.168 3.4043C20.6133 3.97852 20.8359 4.77734 20.8359 5.80078V5.90039ZM19.752 5.77734C19.752 5.0625 19.5996 4.49805 19.2949 4.08398C18.9902 3.66992 18.5723 3.46289 18.041 3.46289C17.3848 3.46289 16.8926 3.75391 16.5645 4.33594V7.36523C16.8887 7.94336 17.3848 8.23242 18.0527 8.23242C18.5723 8.23242 18.9844 8.02734 19.2891 7.61719C19.5977 7.20312 19.752 6.58984 19.752 5.77734ZM24.2227 7.41211L25.6992 2.66016H26.8594L24.3105 9.97852C23.916 11.0332 23.2891 11.5605 22.4297 11.5605L22.2246 11.543L21.8203 11.4668V10.5879L22.1133 10.6113C22.4805 10.6113 22.7656 10.5371 22.9688 10.3887C23.1758 10.2402 23.3457 9.96875 23.4785 9.57422L23.7188 8.92969L21.457 2.66016H22.6406L24.2227 7.41211ZM30.8965 3.63281C30.7324 3.60547 30.5547 3.5918 30.3633 3.5918C29.6523 3.5918 29.1699 3.89453 28.916 4.5V9H27.832V2.66016H28.8867L28.9043 3.39258C29.2598 2.82617 29.7637 2.54297 30.416 2.54297C30.627 2.54297 30.7871 2.57031 30.8965 2.625V3.63281ZM33.0762 9H31.9922V2.66016H33.0762V9ZM31.9043 0.978516C31.9043 0.802734 31.957 0.654297 32.0625 0.533203C32.1719 0.412109 32.332 0.351562 32.543 0.351562C32.7539 0.351562 32.9141 0.412109 33.0234 0.533203C33.1328 0.654297 33.1875 0.802734 33.1875 0.978516C33.1875 1.1543 33.1328 1.30078 33.0234 1.41797C32.9141 1.53516 32.7539 1.59375 32.543 1.59375C32.332 1.59375 32.1719 1.53516 32.0625 1.41797C31.957 1.30078 31.9043 1.1543 31.9043 0.978516ZM35.8418 2.66016L35.877 3.45703C36.3613 2.84766 36.9941 2.54297 37.7754 2.54297C39.1152 2.54297 39.791 3.29883 39.8027 4.81055V9H38.7188V4.80469C38.7148 4.34766 38.6094 4.00977 38.4023 3.79102C38.1992 3.57227 37.8809 3.46289 37.4473 3.46289C37.0957 3.46289 36.7871 3.55664 36.5215 3.74414C36.2559 3.93164 36.0488 4.17773 35.9004 4.48242V9H34.8164V2.66016H35.8418ZM41.1797 5.77734C41.1797 4.78906 41.4082 4.00391 41.8652 3.42188C42.3223 2.83594 42.9277 2.54297 43.6816 2.54297C44.4551 2.54297 45.0586 2.81641 45.4922 3.36328L45.5449 2.66016H46.5352V8.84766C46.5352 9.66797 46.291 10.3145 45.8027 10.7871C45.3184 11.2598 44.666 11.4961 43.8457 11.4961C43.3887 11.4961 42.9414 11.3984 42.5039 11.2031C42.0664 11.0078 41.7324 10.7402 41.502 10.4004L42.0645 9.75C42.5293 10.3242 43.0977 10.6113 43.7695 10.6113C44.2969 10.6113 44.707 10.4629 45 10.166C45.2969 9.86914 45.4453 9.45117 45.4453 8.91211V8.36719C45.0117 8.86719 44.4199 9.11719 43.6699 9.11719C42.9277 9.11719 42.3262 8.81836 41.8652 8.2207C41.4082 7.62305 41.1797 6.80859 41.1797 5.77734ZM42.2695 5.90039C42.2695 6.61523 42.416 7.17773 42.709 7.58789C43.002 7.99414 43.4121 8.19727 43.9395 8.19727C44.623 8.19727 45.125 7.88672 45.4453 7.26562V4.37109C45.1133 3.76562 44.6152 3.46289 43.9512 3.46289C43.4238 3.46289 43.0117 3.66797 42.7148 4.07812C42.418 4.48828 42.2695 5.0957 42.2695 5.90039ZM49.2598 3.42773C49.7402 2.83789 50.3652 2.54297 51.1348 2.54297C52.4746 2.54297 53.1504 3.29883 53.1621 4.81055V9H52.0781V4.80469C52.0742 4.34766 51.9688 4.00977 51.7617 3.79102C51.5586 3.57227 51.2402 3.46289 50.8066 3.46289C50.4551 3.46289 50.1465 3.55664 49.8809 3.74414C49.6152 3.93164 49.4082 4.17773 49.2598 4.48242V9H48.1758V0H49.2598V3.42773ZM56.2559 1.125V2.66016H57.4395V3.49805H56.2559V7.42969C56.2559 7.68359 56.3086 7.875 56.4141 8.00391C56.5195 8.12891 56.6992 8.19141 56.9531 8.19141C57.0781 8.19141 57.25 8.16797 57.4688 8.12109V9C57.1836 9.07812 56.9062 9.11719 56.6367 9.11719C56.1523 9.11719 55.7871 8.9707 55.541 8.67773C55.2949 8.38477 55.1719 7.96875 55.1719 7.42969V3.49805H54.0176V2.66016H55.1719V1.125H56.2559ZM66.5625 5.23242H62.9824V9H61.8574V0.46875H67.1426V1.39453H62.9824V4.3125H66.5625V5.23242ZM75.0469 9H73.916V5.05664H69.6152V9H68.4902V0.46875H69.6152V4.13672H73.916V0.46875H75.0469V9ZM77.0449 9V0.46875H79.4531C80.1953 0.46875 80.8516 0.632812 81.4219 0.960938C81.9922 1.28906 82.4316 1.75586 82.7402 2.36133C83.0527 2.9668 83.2109 3.66211 83.2148 4.44727V4.99219C83.2148 5.79688 83.0586 6.50195 82.7461 7.10742C82.4375 7.71289 81.9941 8.17773 81.416 8.50195C80.8418 8.82617 80.1719 8.99219 79.4062 9H77.0449ZM78.1699 1.39453V8.08008H79.3535C80.2207 8.08008 80.8945 7.81055 81.375 7.27148C81.8594 6.73242 82.1016 5.96484 82.1016 4.96875V4.4707C82.1016 3.50195 81.873 2.75 81.416 2.21484C80.9629 1.67578 80.3184 1.40234 79.4824 1.39453H78.1699Z" fill="#BDBDBD"/>
</svg>
