<svg width="23" height="15" viewBox="0 0 23 15" fill="none" xmlns="http://www.w3.org/2000/svg">
<path d="M11.1294 14.1428C11.1294 14.1417 11.1293 14.1396 11.1287 14.136C10.7177 11.6755 8.57708 9.8 6 9.8C3.42292 9.8 1.28233 11.6755 0.871325 14.136C0.870725 14.1396 0.870618 14.1417 0.870637 14.1428C0.870639 14.1429 0.870641 14.143 0.870645 14.1431C0.870662 14.1435 0.870701 14.1437 0.870721 14.1437L11.1294 14.1428ZM11.1294 14.1428C11.1294 14.1435 11.1293 14.1438 11.1293 14.1438C11.1292 14.1437 11.1293 14.1432 11.1295 14.1424C11.1296 14.1422 11.1296 14.1423 11.1294 14.1428ZM9.2 4C9.2 5.76731 7.76731 7.2 6 7.2C4.23269 7.2 2.8 5.76731 2.8 4C2.8 2.23269 4.23269 0.8 6 0.8C7.76731 0.8 9.2 2.23269 9.2 4Z" stroke="#BDBDBD" stroke-width="1.6" stroke-linecap="round"/>
<path d="M14 4H22M14 8H22M14 12H22" stroke="#BDBDBD" stroke-width="1.6" stroke-linecap="round"/>
</svg>
