<svg width="18" height="24" viewBox="0 0 18 24" fill="none" xmlns="http://www.w3.org/2000/svg">
<path d="M8.9226 23.5871L9 23.6817L9.0774 23.5871L9.50449 23.0651C9.50475 23.0648 9.505 23.0645 9.50526 23.0642C9.65519 22.8892 11.5477 20.6622 13.405 17.8407C14.3352 16.4275 15.2579 14.8631 15.9483 13.3313C16.6379 11.8012 17.1 10.2948 17.1 9.00001C17.1 4.56383 13.4362 0.9 9 0.9C4.56421 0.9 0.9 4.51582 0.9 9.00001C0.9 10.2949 1.36207 11.7983 2.05173 13.3247C2.7422 14.8528 3.6649 16.4127 4.5951 17.8229C6.18903 20.2394 7.81294 22.2273 8.33033 22.8606C8.41638 22.966 8.47183 23.0339 8.49143 23.06L8.49136 23.0601L8.49404 23.0633L8.9226 23.5871ZM2.24286 8.95238C2.24286 5.24526 5.24616 2.19525 9 2.19525C12.7538 2.19525 15.7571 5.24526 15.7571 8.95238C15.7571 9.94485 15.4325 11.112 14.9145 12.3406C14.3972 13.5677 13.6903 14.8486 12.9329 16.0662C11.4666 18.4238 9.81603 20.5373 9.00001 21.5546C8.18415 20.5368 6.53348 18.4119 5.06712 16.0485C4.30977 14.8278 3.60279 13.5454 3.08543 12.3205C2.56741 11.094 2.24286 9.93282 2.24286 8.95238Z" fill="#0A5E74" stroke="#0A5E74" stroke-width="0.2"/>
<path d="M5.85264 8.99999C5.85264 10.7219 7.27836 12.1476 9.00025 12.1476C10.7221 12.1476 12.1479 10.7219 12.1479 8.99999C12.1479 7.2781 10.7221 5.85236 9.00025 5.85236C7.27836 5.85236 5.85264 7.2781 5.85264 8.99999ZM7.19549 8.99999C7.19549 8.0076 8.00786 7.19523 9.00025 7.19523C9.99264 7.19523 10.805 8.0076 10.805 8.99999C10.805 9.99238 9.99264 10.8048 9.00025 10.8048C8.00786 10.8048 7.19549 9.99238 7.19549 8.99999Z" fill="#0A5E74" stroke="#0A5E74" stroke-width="0.2"/>
</svg>
