<svg width="22" height="15" viewBox="0 0 22 15" fill="none" xmlns="http://www.w3.org/2000/svg">
<path d="M9.3 4C9.3 5.82254 7.82254 7.3 6 7.3C4.17746 7.3 2.7 5.82254 2.7 4C2.7 2.17746 4.17746 0.7 6 0.7C7.82254 0.7 9.3 2.17746 9.3 4ZM11.2273 14.1195C11.2337 14.1578 11.2254 14.1897 11.1925 14.2243C11.1545 14.2644 11.0865 14.3 11 14.3H1C0.913508 14.3 0.845528 14.2644 0.807461 14.2243C0.77459 14.1897 0.76629 14.1578 0.772691 14.1195C1.19161 11.6116 3.37325 9.7 6 9.7C8.62675 9.7 10.8084 11.6116 11.2273 14.1195Z" stroke="#BDBDBD" stroke-width="1.4"/>
<mask id="path-2-inside-1" fill="white">
<path fill-rule="evenodd" clip-rule="evenodd" d="M22 3H13V13L17.5 10.75L22 13V3Z"/>
</mask>
<path d="M13 3V1.6H11.6V3H13ZM22 3H23.4V1.6H22V3ZM13 13H11.6V15.2652L13.6261 14.2522L13 13ZM17.5 10.75L18.1261 9.4978L17.5 9.18475L16.8739 9.4978L17.5 10.75ZM22 13L21.3739 14.2522L23.4 15.2652V13H22ZM13 4.4H22V1.6H13V4.4ZM14.4 13V3H11.6V13H14.4ZM13.6261 14.2522L18.1261 12.0022L16.8739 9.4978L12.3739 11.7478L13.6261 14.2522ZM16.8739 12.0022L21.3739 14.2522L22.6261 11.7478L18.1261 9.4978L16.8739 12.0022ZM20.6 3V13H23.4V3H20.6Z" fill="#BDBDBD" mask="url(#path-2-inside-1)"/>
</svg>
