<svg width="21" height="17" viewBox="0 0 21 17" fill="none" xmlns="http://www.w3.org/2000/svg">
<path d="M1 6C1 4.89543 1.89543 4 3 4H15C16.1046 4 17 4.89543 17 6V14C17 15.1046 16.1046 16 15 16H3C1.89543 16 1 15.1046 1 14V6Z" stroke="#BDBDBD" stroke-width="1.3"/>
<path d="M4 4V3C4 1.89543 4.89543 1 6 1H18C19.1046 1 20 1.89543 20 3V10C20 11.1046 19.1046 12 18 12H17" stroke="#BDBDBD" stroke-width="1.3"/>
<circle cx="11" cy="12" r="1" fill="#BDBDBD"/>
<circle cx="13" cy="12" r="1" fill="#BDBDBD"/>
<rect x="1" y="6" width="16" height="2" fill="#BDBDBD"/>
</svg>
