<svg width="21" height="21" viewBox="0 0 21 21" fill="none" xmlns="http://www.w3.org/2000/svg">
<path d="M10.5 19.6644C10.5 19.6644 10.5 19.6644 10.4667 19.6644C10.4333 19.6644 10.4667 19.6644 10.4333 19.6644C9.86667 19.6644 9.3 19.6644 8.76667 19.6644C8.76667 19.6311 8.76667 19.5977 8.76667 19.5643C8.76667 19.2304 8.76667 18.9299 8.76667 18.596C8.76667 18.2621 8.76667 17.9282 8.76667 17.5943C8.76667 17.5275 8.76667 17.4942 8.73333 17.4274C8.7 17.3606 8.63333 17.3272 8.56667 17.3272C7.93333 17.1603 7.36667 16.9265 6.8 16.5927C6.76667 16.5593 6.7 16.5593 6.63333 16.5593C6.56667 16.5593 6.5 16.5927 6.43333 16.6594C5.96667 17.1269 5.5 17.5943 5.03333 18.0618C5 18.0952 5 18.0952 4.96667 18.1285C4.16667 17.3272 3.36667 16.5259 2.56667 15.7245C3.03333 15.2571 3.5 14.7896 4 14.3222C4.06667 14.2554 4.13333 14.1886 4.13333 14.0885C4.13333 14.0217 4.1 13.9549 4.06667 13.8881C3.73333 13.3539 3.5 12.7529 3.33333 12.1519C3.33333 12.1185 3.3 12.0851 3.3 12.0518L3.26667 11.985H3.2C2.46667 11.985 1.73333 11.985 1 11.985C1 10.8497 1 9.74791 1 8.64608C1.73333 8.64608 2.46667 8.64608 3.2 8.64608H3.26667L3.3 8.5793C3.4 8.31219 3.43333 8.04508 3.53333 7.84474C3.7 7.44407 3.9 7.04341 4.1 6.67613C4.13333 6.64274 4.13333 6.57596 4.13333 6.54257C4.13333 6.47579 4.1 6.40901 4.03333 6.37563C3.56667 5.90818 3.1 5.44073 2.63333 4.97329C2.6 4.9399 2.6 4.9399 2.56667 4.90651C3.36667 4.10517 4.13333 3.33723 4.93333 2.53589C5.16667 2.76962 5.36667 2.96995 5.6 3.20367C5.86667 3.47078 6.13333 3.7379 6.4 4.00501C6.43333 4.0384 6.5 4.10518 6.56667 4.10518C6.63333 4.10518 6.66667 4.07178 6.7 4.07178C7.26667 3.7379 7.86667 3.47078 8.5 3.33723C8.56667 3.33723 8.63333 3.27045 8.66667 3.23706C8.7 3.17028 8.7 3.13689 8.7 3.07012C8.7 2.93656 8.7 2.23539 8.7 2.00167C8.7 1.70117 8.7 1.40067 8.7 1.10017C8.7 1.03339 8.7 1 8.7 1C8.7 1 8.73333 1 8.8 1C9.33333 1 9.86667 1 10.4 1C10.4 1 10.4 1 10.4333 1C10.4667 1 10.4333 1 10.4667 1" stroke="#BDBDBD" stroke-width="1.4"/>
<path d="M10 1.00011C10 1.00011 10 1.00011 10.0333 1.00011C10.0667 1.00011 10.0333 1.00011 10.0667 1.00011C10.6333 1.00011 11.2 1.00011 11.7333 1.00011C11.7333 1.0335 11.7333 1.06689 11.7333 1.10028C11.7333 1.43417 11.7333 1.73467 11.7333 2.06856C11.7333 2.40245 11.7333 2.73634 11.7333 3.07023C11.7333 3.13701 11.7333 3.1704 11.7667 3.23717C11.8 3.30395 11.8667 3.33734 11.9333 3.33734C12.5667 3.50428 13.1333 3.73801 13.7 4.0719C13.7333 4.10529 13.8 4.10529 13.8667 4.10529C13.9333 4.10529 14 4.0719 14.0667 4.00512C14.5333 3.53767 15 3.07023 15.4667 2.60278C15.5 2.56939 15.5 2.56939 15.5333 2.536C16.3333 3.33734 17.1333 4.13867 17.9333 4.94001C17.4667 5.40746 17 5.8749 16.5 6.34235C16.4333 6.40912 16.3667 6.4759 16.3667 6.57607C16.3667 6.64285 16.4 6.70963 16.4333 6.77641C16.7667 7.31063 17 7.91163 17.1667 8.51263C17.1667 8.54602 17.2 8.57941 17.2 8.6128L17.2333 8.67958L17.3 8.67958C18.0333 8.67958 18.7667 8.67958 19.5 8.67958C19.5 9.8148 19.5 10.9166 19.5 12.0185C18.7667 12.0185 18.0333 12.0185 17.3 12.0185L17.2333 12.0185L17.2 12.0853C17.1 12.3524 17.0667 12.6195 16.9667 12.8198C16.8 13.2205 16.6 13.6211 16.4 13.9884C16.3667 14.0218 16.3667 14.0886 16.3667 14.122C16.3667 14.1888 16.4 14.2555 16.4667 14.2889C16.9333 14.7564 17.4 15.2238 17.8667 15.6913C17.9 15.7247 17.9 15.7247 17.9333 15.758C17.1333 16.5594 16.3667 17.3273 15.5667 18.1287C15.3333 17.8949 15.1333 17.6946 14.9 17.4609C14.6333 17.1938 14.3667 16.9267 14.1 16.6595C14.0667 16.6262 14 16.5594 13.9333 16.5594C13.8667 16.5594 13.8333 16.5928 13.8 16.5928C13.2333 16.9267 12.6333 17.1938 12 17.3273C11.9333 17.3273 11.8667 17.3941 11.8333 17.4275C11.8 17.4943 11.8 17.5277 11.8 17.5944C11.8 17.728 11.8 18.4292 11.8 18.6629C11.8 18.9634 11.8 19.2639 11.8 19.5644C11.8 19.6312 11.8 19.6646 11.8 19.6646C11.8 19.6646 11.7667 19.6646 11.7 19.6646C11.1667 19.6646 10.6333 19.6646 10.1 19.6645C10.1 19.6645 10.1 19.6645 10.0667 19.6645C10.0333 19.6645 10.0667 19.6645 10.0333 19.6645" stroke="#BDBDBD" stroke-width="1.4"/>
<circle cx="10.1667" cy="10.299" r="3.46667" stroke="#BDBDBD" stroke-width="1.4"/>
</svg>
