<svg width="21" height="21" viewBox="0 0 21 21" fill="none" xmlns="http://www.w3.org/2000/svg">
<path d="M14.8647 9.20565C14.7902 9.12488 14.6921 9.07231 14.5858 9.05622H14.5907L12.062 8.67256L10.9355 6.27972C10.8163 6.03022 10.5261 5.92875 10.287 6.05312C10.1931 6.10203 10.1168 6.1816 10.07 6.27972L8.93863 8.67256L6.40996 9.05622C6.14603 9.09869 5.96508 9.35646 6.0057 9.63203C6.02189 9.74164 6.07218 9.84266 6.14887 9.91946L7.97648 11.7822L7.54617 14.4123C7.50241 14.6874 7.68046 14.9474 7.9439 14.9931C8.04761 15.011 8.1541 14.9933 8.24729 14.9424L10.5004 13.7005L12.7631 14.9424C12.9997 15.0716 13.2919 14.9761 13.4157 14.7291C13.4644 14.6319 13.4814 14.5206 13.4642 14.4123L13.0339 11.7822L14.8518 9.91946C15.0441 9.72605 15.0499 9.4065 14.8647 9.20565ZM12.1732 11.2421C12.0596 11.3572 12.0072 11.5232 12.033 11.6863L12.3424 13.5693L10.7227 12.6808C10.582 12.6036 10.4138 12.6036 10.2731 12.6808L8.65337 13.5693L8.96281 11.6863C8.98855 11.5232 8.93615 11.3572 8.82259 11.2421L7.51232 9.90936L9.32059 9.63676C9.47785 9.61209 9.61341 9.50828 9.68321 9.35911L10.5003 7.64778L11.3078 9.35911C11.3776 9.50828 11.5131 9.61209 11.6704 9.63676L13.4786 9.90936L12.1732 11.2421Z" fill="#BDBDBD" stroke="#BDBDBD" stroke-width="0.2"/>
<path d="M19.9599 12.7457L18.9352 10.4938L19.9475 8.22953C20.0284 8.05139 19.9732 7.84098 19.8153 7.72544L17.8072 6.27102L17.5552 3.79189C17.5348 3.59785 17.3815 3.44455 17.1874 3.42415L14.7083 3.16798L13.2622 1.17228C13.1478 1.01294 12.9372 0.955974 12.7581 1.03593L10.4938 2.05237L8.22953 1.03593C8.05041 0.955974 7.83979 1.01294 7.72544 1.17228L6.27102 3.18037L3.79189 3.43655C3.59785 3.45695 3.44455 3.61024 3.42415 3.80429L3.17211 6.28341L1.17228 7.72544C1.01294 7.83979 0.955974 8.05041 1.03593 8.22953L2.05237 10.4938L1.03593 12.7581C0.955974 12.9372 1.01294 13.1478 1.17228 13.2622L3.18037 14.7166L3.43242 17.1957C3.45282 17.3898 3.60611 17.543 3.80015 17.5634L6.27928 17.8196L7.73371 19.8277C7.84806 19.9871 8.05868 20.044 8.23779 19.9641L10.4938 18.9352L12.7581 19.9517C12.9372 20.0316 13.1478 19.9747 13.2622 19.8153L14.7166 17.8072L17.1957 17.5511C17.3898 17.5307 17.543 17.3774 17.5634 17.1833L17.8155 14.7042L19.8236 13.2498C19.9829 13.1354 20.0399 12.9247 19.9599 12.7457ZM17.1709 14.1505C17.0751 14.2196 17.0134 14.3264 17.0015 14.4439L16.7619 16.7619L14.4439 17.0015C14.3264 17.0134 14.2196 17.0751 14.1505 17.1709L12.787 19.0592L10.6591 18.1047C10.5513 18.0563 10.428 18.0563 10.3203 18.1047L8.19234 19.0592L6.82882 17.1709C6.75972 17.0751 6.65296 17.0134 6.53546 17.0015L4.21747 16.7619L3.97783 14.4439C3.96589 14.3264 3.90423 14.2196 3.80842 14.1505L1.92015 12.787L2.87461 10.6632C2.92306 10.5555 2.92306 10.4321 2.87461 10.3244L1.92015 8.20061L3.80842 6.83709C3.90423 6.76798 3.96589 6.66122 3.97783 6.54372L4.21747 4.22574L6.53546 3.98609C6.65296 3.97416 6.75972 3.91249 6.82882 3.81668L8.19234 1.92841L10.3203 2.88288C10.428 2.93132 10.5513 2.93132 10.6591 2.88288L12.787 1.92841L14.1505 3.81668C14.2196 3.91249 14.3264 3.97416 14.4439 3.98609L16.7619 4.22574L17.0015 6.54372C17.0134 6.66122 17.0751 6.76798 17.1709 6.83709L19.0592 8.20061L18.1047 10.3244C18.0563 10.4321 18.0563 10.5555 18.1047 10.6632L19.0592 12.787L17.1709 14.1505Z" fill="#BDBDBD" stroke="#BDBDBD" stroke-width="0.4"/>
</svg>
